HIERARCHY
ROOT hip
{
  OFFSET 0 0 0
  CHANNELS 6 Xposition Yposition Zposition Zrotation Yrotation Xrotation
  JOINT abdomen
  {
    OFFSET 0 20.6881 -0.73152
    CHANNELS 3 Zrotation Xrotation Yrotation
    JOINT chest
    {
      OFFSET 0 11.7043 -0.48768
      CHANNELS 3 Zrotation Xrotation Yrotation
      JOINT neck
      {
        OFFSET 0 22.1894 -2.19456
        CHANNELS 3 Zrotation Xrotation Yrotation
        JOINT head
        {
          OFFSET -0.24384 7.07133 1.2192
          CHANNELS 3 Zrotation Xrotation Yrotation
          JOINT leftEye
          {
            OFFSET 4.14528 8.04674 8.04672
            CHANNELS 3 Zrotation Xrotation Yrotation
            End Site
            {
              OFFSET 1 0 0
            }
          }
          JOINT rightEye
          {
            OFFSET -3.6576 8.04674 8.04672
            CHANNELS 3 Zrotation Xrotation Yrotation
            End Site
            {
              OFFSET 1 0 0
            }
          }
        }
      }
      JOINT rCollar
      {
        OFFSET -2.68224 19.2634 -4.8768
        CHANNELS 3 Zrotation Xrotation Yrotation
        JOINT rShldr
        {
          OFFSET -8.77824 -1.95073 1.46304
          CHANNELS 3 Zrotation Xrotation Yrotation
          JOINT rForeArm
          {
            OFFSET -28.1742 -1.7115 0.48768
            CHANNELS 3 Zrotation Xrotation Yrotation
            JOINT rHand
            {
              OFFSET -22.5879 0.773209 7.07136
              CHANNELS 3 Zrotation Xrotation Yrotation
              JOINT rThumb1
              {
                OFFSET -1.2192 -0.487915 3.41376
                CHANNELS 3 Zrotation Xrotation Yrotation
                JOINT rThumb2
                {
                  OFFSET -3.37035 -0.52449 3.41376
                  CHANNELS 3 Zrotation Xrotation Yrotation
                  End Site
                  {
                    OFFSET -1.78271 -1.18214 1.43049
                  }
                }
              }
              JOINT rIndex1
              {
                OFFSET -7.75947 0.938293 5.60832
                CHANNELS 3 Zrotation Xrotation Yrotation
                JOINT rIndex2
                {
                  OFFSET -2.54057 -0.884171 1.56538
                  CHANNELS 3 Zrotation Xrotation Yrotation
                  End Site
                  {
                    OFFSET -1.62519 -0.234802 1.16502
                  }
                }
              }
              JOINT rMid1
              {
                OFFSET -8.24714 1.18213 3.41376
                CHANNELS 3 Zrotation Xrotation Yrotation
                JOINT rMid2
                {
                  OFFSET -3.10165 -0.590103 1.0647
                  CHANNELS 3 Zrotation Xrotation Yrotation
                  End Site
                  {
                    OFFSET -2.48547 -0.328903 0.83742
                  }
                }
              }
              JOINT rRing1
              {
                OFFSET -8.82822 0.546677 1.51678
                CHANNELS 3 Zrotation Xrotation Yrotation
                JOINT rRing2
                {
                  OFFSET -2.60934 -0.819778 -0.0198488
                  CHANNELS 3 Zrotation Xrotation Yrotation
                  End Site
                  {
                    OFFSET -2.33842 -0.294052 0.168128
                  }
                }
              }
              JOINT rPinky1
              {
                OFFSET -8.27202 -0.0477905 -0.4584
                CHANNELS 3 Zrotation Xrotation Yrotation
                JOINT rPinky2
                {
                  OFFSET -1.82734 -0.647385 -0.700984
                  CHANNELS 3 Zrotation Xrotation Yrotation
                  End Site
                  {
                    OFFSET -1.69225 -0.51767 -0.607171
                  }
                }
              }
            }
          }
        }
      }
      JOINT lCollar
      {
        OFFSET 2.68224 19.2634 -4.8768
        CHANNELS 3 Zrotation Xrotation Yrotation
        JOINT lShldr
        {
          OFFSET 8.77824 -1.95073 1.46304
          CHANNELS 3 Zrotation Xrotation Yrotation
          JOINT lForeArm
          {
            OFFSET 28.1742 -1.7115 0.48768
            CHANNELS 3 Zrotation Xrotation Yrotation
            JOINT lHand
            {
              OFFSET 22.5879 0.773209 7.07136
              CHANNELS 3 Zrotation Xrotation Yrotation
              JOINT lThumb1
              {
                OFFSET 1.2192 -0.487915 3.41376
                CHANNELS 3 Zrotation Xrotation Yrotation
                JOINT lThumb2
                {
                  OFFSET 3.37035 -0.52449 3.41376
                  CHANNELS 3 Zrotation Xrotation Yrotation
                  End Site
                  {
                    OFFSET 1.78271 -1.18214 1.43049
                  }
                }
              }
              JOINT lIndex1
              {
                OFFSET 7.75947 0.938293 5.60832
                CHANNELS 3 Zrotation Xrotation Yrotation
                JOINT lIndex2
                {
                  OFFSET 2.54057 -0.884171 1.56538
                  CHANNELS 3 Zrotation Xrotation Yrotation
                  End Site
                  {
                    OFFSET 1.62519 -0.234802 1.16502
                  }
                }
              }
              JOINT lMid1
              {
                OFFSET 8.24714 1.18213 3.41376
                CHANNELS 3 Zrotation Xrotation Yrotation
                JOINT lMid2
                {
                  OFFSET 3.10165 -0.590103 1.0647
                  CHANNELS 3 Zrotation Xrotation Yrotation
                  End Site
                  {
                    OFFSET 2.48547 -0.328903 0.83742
                  }
                }
              }
              JOINT lRing1
              {
                OFFSET 8.82822 0.546677 1.51678
                CHANNELS 3 Zrotation Xrotation Yrotation
                JOINT lRing2
                {
                  OFFSET 2.60934 -0.819778 -0.0198488
                  CHANNELS 3 Zrotation Xrotation Yrotation
                  End Site
                  {
                    OFFSET 2.33842 -0.294052 0.168128
                  }
                }
              }
              JOINT lPinky1
              {
                OFFSET 8.27202 -0.0477905 -0.4584
                CHANNELS 3 Zrotation Xrotation Yrotation
                JOINT lPinky2
                {
                  OFFSET 1.82734 -0.647385 -0.700984
                  CHANNELS 3 Zrotation Xrotation Yrotation
                  End Site
                  {
                    OFFSET 1.69225 -0.51767 -0.607171
                  }
                }
              }
            }
          }
        }
      }
    }
  }
  JOINT rButtock
  {
    OFFSET -8.77824 4.35084 1.2192
    CHANNELS 3 Zrotation Xrotation Yrotation
    JOINT rThigh
    {
      OFFSET 0 -1.70687 -2.19456
      CHANNELS 3 Zrotation Xrotation Yrotation
      JOINT rShin
      {
        OFFSET 0 -36.8199 0.73152
        CHANNELS 3 Zrotation Xrotation Yrotation
        JOINT rFoot
        {
          OFFSET 0.73152 -45.1104 -5.12064
          CHANNELS 3 Zrotation Xrotation Yrotation
          End Site
          {
            OFFSET -1.1221 -3.69964 12.103
          }
        }
      }
    }
  }
  JOINT lButtock
  {
    OFFSET 8.77824 4.35084 1.2192
    CHANNELS 3 Zrotation Xrotation Yrotation
    JOINT lThigh
    {
      OFFSET 0 -1.70687 -2.19456
      CHANNELS 3 Zrotation Xrotation Yrotation
      JOINT lShin
      {
        OFFSET 0 -36.8199 0.73152
        CHANNELS 3 Zrotation Xrotation Yrotation
        JOINT lFoot
        {
          OFFSET -0.73152 -45.1104 -5.12064
          CHANNELS 3 Zrotation Xrotation Yrotation
          End Site
          {
            OFFSET 1.1221 -3.69964 12.103
          }
        }
      }
    }
  }
}
MOTION
Frames:	5
Frame Time:	0.00833333
-2.246800 52.157800 -71.243400 6.031266 68.425808 7.341504 1.401230 17.325272 -1.484542 -4.292002 -9.532785 24.165182 -11.700147 30.683105 -109.222048 35.468658 24.234132 130.208636 -8.350440 -3.068969 5.788392 12.482680 -4.646676 -33.479123 -158.846591 -66.754753 179.805079 109.472872 54.512228 -105.609052 -176.474337 -44.557508 42.993902 157.426784 -33.704571 137.040062 -177.849569 -8.517845 86.539523 -39.866325 -40.518208 -11.517858 38.884136 -49.768647 -5.069736 -134.474225 21.370037 114.957242 136.661440 -77.923217 96.527246 -164.811974 3.327557 132.155279 -144.076498 -2.259690 -174.050184 -162.776121 -24.784920 -177.127825 -123.160800 -2.261569 -127.965814 -134.010166 38.474705 -153.504067 -2.407356 -62.137820 8.825216 129.638234 -11.947469 150.241907 -177.217024 -26.393357 78.201724 18.263671 1.517946 -3.123874 166.296925 6.090194 -90.396157 14.550731 -51.573483 1.299693 -7.878595 -19.086766 2.917736 164.792477 -23.537119 -120.842710 148.960445 31.648276 -136.811291 13.337925 36.475311 -14.333241 -1.736154 27.748689 -2.028397 116.059574 67.094353 -122.195758 75.215575 -56.224006 78.031462 141.317573 -16.916146 136.840568 156.930223 80.470322 5.923494 144.322291 20.776359 2.791537 -112.477681 86.096063 25.622456 45.377202 29.817995 54.293191 0.530287 2.028727 -9.223051 72.682581 -52.579043 -136.070353 -77.899909 -84.813022 173.964038 -173.613332 -26.186194 65.898681
-2.015100 51.719800 -71.689100 7.635130 70.179802 7.176272 -2.884837 23.733117 -5.847570 -3.238791 -11.917745 22.103731 9.729781 24.636752 111.049133 -33.960036 10.145329 -71.572119 -5.005610 4.011923 2.075227 13.486165 -3.264452 -29.270866 -144.729628 30.131008 152.089130 127.017806 -32.103455 147.820928 -183.268149 0.907209 36.138839 156.581558 -31.644943 135.573830 -172.730436 -5.573613 85.435622 31.276750 -72.353786 37.510961 5.166836 -9.947809 -0.820285 8.869407 11.323367 -1.292864 -13.474904 33.102964 15.045601 -3.355975 -34.870722 -11.818712 -2.135085 21.151556 11.202669 14.098407 -26.276816 -7.869573 117.253180 84.539462 -62.370961 -5.423445 -1.009205 -13.677882 140.892789 42.166102 -141.945068 69.799333 31.883890 -49.454423 18.461242 -28.189385 155.101288 172.762881 -18.824868 -148.406173 -183.275345 -20.125127 -98.356040 146.548588 20.917204 -83.136315 -27.056503 -52.283558 5.036704 126.503124 41.210154 -103.609053 164.266797 -27.155356 -148.944479 148.373198 17.129108 -145.209464 3.174835 4.936068 5.142817 2.824795 46.100056 -25.747403 -5.546576 7.008472 -7.605924 -72.297381 70.784034 37.715184 3.737738 -2.708514 10.176613 -59.408504 -29.448274 171.038153 -100.444559 -63.632807 -9.867979 40.534023 -73.737961 121.946261 -0.157371 0.288844 -6.145029 59.663693 -46.482028 -2.126243 -96.222723 32.721454 -31.766998 -101.877838 81.461015 -159.947045
-1.792300 51.238900 -72.065100 5.440925 70.930064 6.397646 -5.716916 15.345089 -35.122024 6.532241 -12.746471 55.922497 -8.272279 18.443204 -71.995687 39.307191 9.324748 102.657766 0.429525 3.100103 1.312884 14.638191 -6.931326 -31.122474 -69.562480 68.422393 68.095538 -4.776230 8.494070 51.862271 -41.901371 -75.861278 57.946619 -6.704592 31.385540 0.766483 16.660383 -20.670495 2.814472 -106.844806 14.928000 107.463893 22.549143 -31.596956 -1.016403 17.327922 3.278746 -0.250599 -145.465435 22.755463 133.617817 -145.216754 -2.206806 146.680955 -145.623705 -5.609420 -176.760190 -163.562811 -12.288058 180.392835 -114.329462 -17.441493 -118.960211 3.071819 -28.766141 -8.441445 -3.722552 -8.875890 0.337345 121.162879 -3.687279 -179.060150 167.320342 16.658174 78.399146 13.744103 -16.454416 0.379470 174.861673 -11.192650 -90.723723 155.945804 -0.775770 -99.356024 110.320653 36.455859 -94.777642 168.684518 -15.428929 -102.343518 10.006700 39.481713 -10.513268 167.069519 -1.463582 -143.465651 37.888737 -62.009161 47.744420 -19.088383 66.894577 -11.167462 -1.431261 -19.752995 2.679577 143.453473 -0.822246 136.104640 16.497762 6.616768 17.854034 -80.835910 -17.834339 -166.189088 -95.337062 -22.129906 -167.871870 -167.986758 -16.360982 133.001735 -149.894606 80.650318 -24.216409 -154.644602 6.642518 79.275534 92.738039 -5.438831 -3.745076 -138.554642 63.381002 33.896481
-1.577000 50.718500 -72.375000 2.577906 71.075496 1.582751 -5.862353 16.696125 0.791495 -2.991535 -10.210558 15.498856 11.142606 14.827111 72.054132 -27.839729 -4.850559 -34.182561 -5.535743 -2.953605 5.719309 14.775768 1.003904 -35.116956 -5.318203 11.692796 0.583462 -121.344653 -4.750473 155.208314 -172.564142 -24.428551 -80.742885 -9.340772 39.123932 4.110617 -171.687054 -2.413073 83.035309 168.458636 -14.007047 93.474155 -145.012864 -22.398888 120.411753 -6.308350 27.174200 -5.121351 10.685348 -18.796385 3.948426 -168.314555 29.588274 140.563770 -147.604322 1.865753 176.302569 -2.986732 48.889495 8.962213 -4.979525 -19.879131 -16.509322 -4.920643 65.658538 38.573973 163.229540 -27.097232 -168.565932 -154.536699 22.615118 163.271159 27.035703 -39.231550 -82.526307 7.299845 -42.866234 7.617904 -14.182646 -25.623722 7.368569 4.270444 11.816582 -3.912312 66.002259 43.194748 -52.728009 9.269094 23.525514 -8.235613 -0.534195 -5.205848 3.498494 159.139142 13.907652 -137.812001 -0.182337 3.807855 5.897545 149.666485 -1.005111 -163.231127 141.931183 13.518156 143.793375 148.981115 15.518818 146.903372 -22.647548 3.804912 -8.773357 -26.884733 -48.865414 -70.354392 -109.573276 49.444270 -113.693155 14.914645 39.067721 -157.207394 176.117002 77.171707 2.146824 -148.967770 7.909406 -80.020509 -98.325693 29.852862 -160.723111 -30.621131 -8.272618 -115.006684
-1.367500 50.162800 -72.623500 3.127915 70.256823 4.975836 -3.849238 22.121672 -13.856712 -0.054710 -13.540612 29.550786 -12.158163 14.403162 -46.201135 28.345384 -4.514886 78.460300 -9.546864 -0.193341 6.437116 9.913175 -7.351310 -37.597193 -145.777561 24.605785 159.498655 -175.661846 43.159470 137.104975 102.032456 -74.980395 -36.950146 165.204080 -22.468444 140.740685 -168.132201 6.929921 83.366586 -139.538073 13.082358 49.971052 45.155720 -55.135763 2.429602 -22.540423 43.094434 13.236012 -171.858681 -52.415131 135.876838 -160.246983 -11.474892 134.559707 -145.300883 13.787661 179.079986 -154.283636 11.555681 164.812367 35.972933 44.658268 1.894018 11.803210 47.542691 2.392581 158.869235 -18.083430 -160.483127 -140.800931 45.571884 167.430533 6.154002 6.983293 -110.630188 10.744756 -13.836725 2.956749 165.779678 2.619391 -94.788904 1.489802 -59.463511 0.259403 142.624590 5.167258 -123.257135 169.254083 -8.589072 -114.317415 161.026106 -30.094933 -151.844111 20.177602 59.035108 -22.550065 141.687057 -13.689035 165.835691 151.897276 -33.207285 171.204801 147.427429 66.245666 158.386796 155.439197 57.824831 142.200504 -80.781792 41.186438 -55.145986 80.208872 -19.458916 -19.140997 -108.079014 56.874167 -129.024890 -88.381063 -23.215741 -153.538697 -2.071267 -2.854615 -13.298803 75.397540 -43.910022 169.832936 91.338586 -19.524118 169.308152 181.017049 60.701543 -93.293647
